<mxfile host="app.diagrams.net" agent="Mozilla/5.0 (X11; Linux x86_64; rv:130.0) Gecko/20100101 Firefox/130.0" version="24.7.15">
  <diagram id="C5RBs43oDa-KdzZeNtuy" name="Page-1">
    <mxGraphModel dx="1414" dy="772" grid="1" gridSize="10" guides="1" tooltips="1" connect="1" arrows="1" fold="1" page="1" pageScale="1" pageWidth="1600" pageHeight="900" math="0" shadow="0">
      <root>
        <mxCell id="WIyWlLk6GJQsqaUBKTNV-0" />
        <mxCell id="WIyWlLk6GJQsqaUBKTNV-1" parent="WIyWlLk6GJQsqaUBKTNV-0" />
        <mxCell id="55hbPj5yIPeKLmPJDFJs-8" value="" style="verticalLabelPosition=bottom;verticalAlign=top;html=1;shape=mxgraph.basic.rect;fillColor2=none;strokeWidth=1;size=20;indent=5;" vertex="1" parent="WIyWlLk6GJQsqaUBKTNV-1">
          <mxGeometry x="140" y="750" width="20" height="90" as="geometry" />
        </mxCell>
        <mxCell id="55hbPj5yIPeKLmPJDFJs-6" value="" style="verticalLabelPosition=bottom;verticalAlign=top;html=1;shape=mxgraph.basic.rect;fillColor2=none;strokeWidth=1;size=20;indent=5;" vertex="1" parent="WIyWlLk6GJQsqaUBKTNV-1">
          <mxGeometry x="140" y="545" width="20" height="35" as="geometry" />
        </mxCell>
        <mxCell id="55hbPj5yIPeKLmPJDFJs-4" value="" style="verticalLabelPosition=bottom;verticalAlign=top;html=1;shape=mxgraph.basic.rect;fillColor2=none;strokeWidth=1;size=20;indent=5;" vertex="1" parent="WIyWlLk6GJQsqaUBKTNV-1">
          <mxGeometry x="140" y="400" width="20" height="40" as="geometry" />
        </mxCell>
        <mxCell id="Cn50sSMzSw2PKXhurFe1-7" value="&lt;font style=&quot;font-size: 15px;&quot;&gt;&lt;b&gt;&lt;font style=&quot;font-size: 15px;&quot;&gt;(Chained) HashMap&lt;/font&gt;&lt;br&gt;&lt;/b&gt;&lt;/font&gt;" style="swimlane;fontStyle=1;align=center;verticalAlign=top;childLayout=stackLayout;horizontal=1;startSize=26;horizontalStack=0;resizeParent=1;resizeParentMax=0;resizeLast=0;collapsible=1;marginBottom=0;whiteSpace=wrap;html=1;" parent="WIyWlLk6GJQsqaUBKTNV-1" vertex="1">
          <mxGeometry x="390" y="80" width="160" height="100" as="geometry" />
        </mxCell>
        <mxCell id="Cn50sSMzSw2PKXhurFe1-9" value="" style="line;strokeWidth=1;fillColor=none;align=left;verticalAlign=middle;spacingTop=-1;spacingLeft=3;spacingRight=3;rotatable=0;labelPosition=right;points=[];portConstraint=eastwest;strokeColor=inherit;" parent="Cn50sSMzSw2PKXhurFe1-7" vertex="1">
          <mxGeometry y="26" width="160" height="8" as="geometry" />
        </mxCell>
        <mxCell id="Cn50sSMzSw2PKXhurFe1-10" value="&lt;div style=&quot;font-size: 15px;&quot;&gt;&lt;font style=&quot;font-size: 15px;&quot;&gt;&lt;font style=&quot;font-size: 15px;&quot;&gt;+ void insert(K, V)&lt;/font&gt;&lt;/font&gt;&lt;/div&gt;&lt;div style=&quot;font-size: 15px;&quot;&gt;&lt;font style=&quot;font-size: 15px;&quot;&gt;+ V get(K)&lt;/font&gt;&lt;/div&gt;" style="text;strokeColor=none;fillColor=none;align=left;verticalAlign=top;spacingLeft=4;spacingRight=4;overflow=hidden;rotatable=0;points=[[0,0.5],[1,0.5]];portConstraint=eastwest;whiteSpace=wrap;html=1;" parent="Cn50sSMzSw2PKXhurFe1-7" vertex="1">
          <mxGeometry y="34" width="160" height="66" as="geometry" />
        </mxCell>
        <mxCell id="Cn50sSMzSw2PKXhurFe1-0" value="&lt;font style=&quot;font-size: 15px;&quot;&gt;DoublyLinkedList&amp;lt;T&amp;gt;&lt;/font&gt;" style="swimlane;fontStyle=1;align=center;verticalAlign=top;childLayout=stackLayout;horizontal=1;startSize=26;horizontalStack=0;resizeParent=1;resizeParentMax=0;resizeLast=0;collapsible=1;marginBottom=0;whiteSpace=wrap;html=1;" parent="WIyWlLk6GJQsqaUBKTNV-1" vertex="1">
          <mxGeometry x="1300" y="80" width="260" height="110" as="geometry" />
        </mxCell>
        <mxCell id="Cn50sSMzSw2PKXhurFe1-2" value="" style="line;strokeWidth=1;fillColor=none;align=left;verticalAlign=middle;spacingTop=-1;spacingLeft=3;spacingRight=3;rotatable=0;labelPosition=right;points=[];portConstraint=eastwest;strokeColor=inherit;" parent="Cn50sSMzSw2PKXhurFe1-0" vertex="1">
          <mxGeometry y="26" width="260" height="8" as="geometry" />
        </mxCell>
        <mxCell id="Cn50sSMzSw2PKXhurFe1-3" value="&lt;div style=&quot;font-size: 15px;&quot;&gt;&lt;font style=&quot;font-size: 15px;&quot;&gt;+ void pushFront(T)&lt;/font&gt;&lt;/div&gt;&lt;div style=&quot;font-size: 15px;&quot;&gt;&lt;font style=&quot;font-size: 15px;&quot;&gt;+ void popBack()&lt;/font&gt;&lt;/div&gt;&lt;div style=&quot;font-size: 15px;&quot;&gt;&lt;font style=&quot;font-size: 15px;&quot;&gt;+ bool remove(DLLNode*)&lt;br&gt;&lt;/font&gt;&lt;/div&gt;&lt;div style=&quot;font-size: 15px;&quot;&gt;&lt;font style=&quot;font-size: 15px;&quot;&gt;&lt;br&gt;&lt;/font&gt;&lt;/div&gt;" style="text;strokeColor=none;fillColor=none;align=left;verticalAlign=top;spacingLeft=4;spacingRight=4;overflow=hidden;rotatable=0;points=[[0,0.5],[1,0.5]];portConstraint=eastwest;whiteSpace=wrap;html=1;" parent="Cn50sSMzSw2PKXhurFe1-0" vertex="1">
          <mxGeometry y="34" width="260" height="76" as="geometry" />
        </mxCell>
        <mxCell id="Cn50sSMzSw2PKXhurFe1-77" value="&lt;font style=&quot;font-size: 15px;&quot;&gt;&lt;b&gt;(LRU) &lt;font style=&quot;font-size: 15px;&quot;&gt;CacheManager&lt;br&gt;&lt;/font&gt;&lt;/b&gt;&lt;/font&gt;" style="swimlane;fontStyle=1;align=center;verticalAlign=top;childLayout=stackLayout;horizontal=1;startSize=26;horizontalStack=0;resizeParent=1;resizeParentMax=0;resizeLast=0;collapsible=1;marginBottom=0;whiteSpace=wrap;html=1;" parent="WIyWlLk6GJQsqaUBKTNV-1" vertex="1">
          <mxGeometry x="40" y="80" width="220" height="130" as="geometry" />
        </mxCell>
        <mxCell id="Cn50sSMzSw2PKXhurFe1-79" value="" style="line;strokeWidth=1;fillColor=none;align=left;verticalAlign=middle;spacingTop=-1;spacingLeft=3;spacingRight=3;rotatable=0;labelPosition=right;points=[];portConstraint=eastwest;strokeColor=inherit;" parent="Cn50sSMzSw2PKXhurFe1-77" vertex="1">
          <mxGeometry y="26" width="220" height="8" as="geometry" />
        </mxCell>
        <mxCell id="Cn50sSMzSw2PKXhurFe1-80" value="&lt;div style=&quot;font-size: 15px;&quot;&gt;&lt;font style=&quot;font-size: 15px;&quot;&gt;+ void insert(K, V)&lt;/font&gt;&lt;/div&gt;&lt;div style=&quot;font-size: 15px;&quot;&gt;&lt;div style=&quot;font-size: 15px;&quot;&gt;&lt;font style=&quot;font-size: 15px;&quot;&gt;+ V get(K)&lt;/font&gt;&lt;/div&gt;&lt;div style=&quot;font-size: 15px;&quot;&gt;&lt;font style=&quot;font-size: 15px;&quot;&gt;&lt;br&gt;&lt;/font&gt;&lt;/div&gt;&lt;/div&gt;&lt;div style=&quot;font-size: 15px;&quot;&gt;&lt;font style=&quot;font-size: 15px;&quot;&gt;&lt;font style=&quot;font-size: 15px;&quot;&gt;+ Iterator find(sort predicate)&lt;/font&gt;&lt;br&gt;&lt;/font&gt;&lt;/div&gt;" style="text;strokeColor=none;fillColor=none;align=left;verticalAlign=top;spacingLeft=4;spacingRight=4;overflow=hidden;rotatable=0;points=[[0,0.5],[1,0.5]];portConstraint=eastwest;whiteSpace=wrap;html=1;" parent="Cn50sSMzSw2PKXhurFe1-77" vertex="1">
          <mxGeometry y="34" width="220" height="96" as="geometry" />
        </mxCell>
        <mxCell id="mhvrnuPzCbjexlNrfybF-1" value="&lt;font style=&quot;font-size: 15px;&quot;&gt;BTree&lt;br&gt;&lt;/font&gt;" style="swimlane;fontStyle=1;align=center;verticalAlign=top;childLayout=stackLayout;horizontal=1;startSize=26;horizontalStack=0;resizeParent=1;resizeParentMax=0;resizeLast=0;collapsible=1;marginBottom=0;whiteSpace=wrap;html=1;" parent="WIyWlLk6GJQsqaUBKTNV-1" vertex="1">
          <mxGeometry x="940" y="40" width="220" height="80" as="geometry" />
        </mxCell>
        <mxCell id="mhvrnuPzCbjexlNrfybF-2" value="" style="line;strokeWidth=1;fillColor=none;align=left;verticalAlign=middle;spacingTop=-1;spacingLeft=3;spacingRight=3;rotatable=0;labelPosition=right;points=[];portConstraint=eastwest;strokeColor=inherit;" parent="mhvrnuPzCbjexlNrfybF-1" vertex="1">
          <mxGeometry y="26" width="220" height="8" as="geometry" />
        </mxCell>
        <mxCell id="mhvrnuPzCbjexlNrfybF-3" value="&lt;div style=&quot;font-size: 15px;&quot;&gt;&lt;font style=&quot;font-size: 15px;&quot;&gt;+ Iterator find(sort predicate 1)&lt;br&gt;&lt;/font&gt;&lt;/div&gt;" style="text;strokeColor=none;fillColor=none;align=left;verticalAlign=top;spacingLeft=4;spacingRight=4;overflow=hidden;rotatable=0;points=[[0,0.5],[1,0.5]];portConstraint=eastwest;whiteSpace=wrap;html=1;" parent="mhvrnuPzCbjexlNrfybF-1" vertex="1">
          <mxGeometry y="34" width="220" height="46" as="geometry" />
        </mxCell>
        <mxCell id="mhvrnuPzCbjexlNrfybF-4" value="&lt;font style=&quot;font-size: 15px;&quot;&gt;«interface»&lt;br&gt;&lt;b&gt;BTree&lt;/b&gt;&lt;br&gt;&lt;/font&gt;" style="html=1;whiteSpace=wrap;" parent="WIyWlLk6GJQsqaUBKTNV-1" vertex="1">
          <mxGeometry x="700" y="80" width="110" height="130" as="geometry" />
        </mxCell>
        <mxCell id="mhvrnuPzCbjexlNrfybF-5" value="&lt;font style=&quot;font-size: 15px;&quot;&gt;BTree&lt;br&gt;&lt;/font&gt;" style="swimlane;fontStyle=1;align=center;verticalAlign=top;childLayout=stackLayout;horizontal=1;startSize=26;horizontalStack=0;resizeParent=1;resizeParentMax=0;resizeLast=0;collapsible=1;marginBottom=0;whiteSpace=wrap;html=1;" parent="WIyWlLk6GJQsqaUBKTNV-1" vertex="1">
          <mxGeometry x="940" y="130" width="220" height="80" as="geometry" />
        </mxCell>
        <mxCell id="mhvrnuPzCbjexlNrfybF-6" value="" style="line;strokeWidth=1;fillColor=none;align=left;verticalAlign=middle;spacingTop=-1;spacingLeft=3;spacingRight=3;rotatable=0;labelPosition=right;points=[];portConstraint=eastwest;strokeColor=inherit;" parent="mhvrnuPzCbjexlNrfybF-5" vertex="1">
          <mxGeometry y="26" width="220" height="8" as="geometry" />
        </mxCell>
        <mxCell id="mhvrnuPzCbjexlNrfybF-7" value="&lt;div style=&quot;font-size: 15px;&quot;&gt;&lt;font style=&quot;font-size: 15px;&quot;&gt;+ Iterator find(sort predicate 2)&lt;br&gt;&lt;/font&gt;&lt;/div&gt;" style="text;strokeColor=none;fillColor=none;align=left;verticalAlign=top;spacingLeft=4;spacingRight=4;overflow=hidden;rotatable=0;points=[[0,0.5],[1,0.5]];portConstraint=eastwest;whiteSpace=wrap;html=1;" parent="mhvrnuPzCbjexlNrfybF-5" vertex="1">
          <mxGeometry y="34" width="220" height="46" as="geometry" />
        </mxCell>
        <mxCell id="mhvrnuPzCbjexlNrfybF-8" value="&lt;font style=&quot;font-size: 15px;&quot;&gt;BTree&lt;br&gt;&lt;/font&gt;" style="swimlane;fontStyle=1;align=center;verticalAlign=top;childLayout=stackLayout;horizontal=1;startSize=26;horizontalStack=0;resizeParent=1;resizeParentMax=0;resizeLast=0;collapsible=1;marginBottom=0;whiteSpace=wrap;html=1;" parent="WIyWlLk6GJQsqaUBKTNV-1" vertex="1">
          <mxGeometry x="940" y="220" width="220" height="80" as="geometry" />
        </mxCell>
        <mxCell id="mhvrnuPzCbjexlNrfybF-9" value="" style="line;strokeWidth=1;fillColor=none;align=left;verticalAlign=middle;spacingTop=-1;spacingLeft=3;spacingRight=3;rotatable=0;labelPosition=right;points=[];portConstraint=eastwest;strokeColor=inherit;" parent="mhvrnuPzCbjexlNrfybF-8" vertex="1">
          <mxGeometry y="26" width="220" height="8" as="geometry" />
        </mxCell>
        <mxCell id="mhvrnuPzCbjexlNrfybF-10" value="&lt;div style=&quot;font-size: 15px;&quot;&gt;&lt;font style=&quot;font-size: 15px;&quot;&gt;+ Iterator find(sort predicate 3)&lt;br&gt;&lt;/font&gt;&lt;/div&gt;" style="text;strokeColor=none;fillColor=none;align=left;verticalAlign=top;spacingLeft=4;spacingRight=4;overflow=hidden;rotatable=0;points=[[0,0.5],[1,0.5]];portConstraint=eastwest;whiteSpace=wrap;html=1;" parent="mhvrnuPzCbjexlNrfybF-8" vertex="1">
          <mxGeometry y="34" width="220" height="46" as="geometry" />
        </mxCell>
        <mxCell id="M4I0rMNGaV8OxPY2INGT-9" value="CacheManager" style="shape=umlLifeline;perimeter=lifelinePerimeter;whiteSpace=wrap;html=1;container=1;dropTarget=0;collapsible=0;recursiveResize=0;outlineConnect=0;portConstraint=eastwest;newEdgeStyle={&quot;curved&quot;:0,&quot;rounded&quot;:0};" parent="WIyWlLk6GJQsqaUBKTNV-1" vertex="1">
          <mxGeometry x="100" y="210" width="100" height="670" as="geometry" />
        </mxCell>
        <mxCell id="M4I0rMNGaV8OxPY2INGT-10" value="HashMap" style="shape=umlLifeline;perimeter=lifelinePerimeter;whiteSpace=wrap;html=1;container=1;dropTarget=0;collapsible=0;recursiveResize=0;outlineConnect=0;portConstraint=eastwest;newEdgeStyle={&quot;curved&quot;:0,&quot;rounded&quot;:0};" parent="WIyWlLk6GJQsqaUBKTNV-1" vertex="1">
          <mxGeometry x="420" y="180" width="100" height="700" as="geometry" />
        </mxCell>
        <mxCell id="M4I0rMNGaV8OxPY2INGT-11" value="AbstractBTree" style="shape=umlLifeline;perimeter=lifelinePerimeter;whiteSpace=wrap;html=1;container=1;dropTarget=0;collapsible=0;recursiveResize=0;outlineConnect=0;portConstraint=eastwest;newEdgeStyle={&quot;curved&quot;:0,&quot;rounded&quot;:0};" parent="WIyWlLk6GJQsqaUBKTNV-1" vertex="1">
          <mxGeometry x="705" y="210" width="100" height="670" as="geometry" />
        </mxCell>
        <mxCell id="M4I0rMNGaV8OxPY2INGT-12" value="BTree" style="shape=umlLifeline;perimeter=lifelinePerimeter;whiteSpace=wrap;html=1;container=1;dropTarget=0;collapsible=0;recursiveResize=0;outlineConnect=0;portConstraint=eastwest;newEdgeStyle={&quot;curved&quot;:0,&quot;rounded&quot;:0};" parent="WIyWlLk6GJQsqaUBKTNV-1" vertex="1">
          <mxGeometry x="995" y="300" width="100" height="580" as="geometry" />
        </mxCell>
        <mxCell id="M4I0rMNGaV8OxPY2INGT-13" value="DLL" style="shape=umlLifeline;perimeter=lifelinePerimeter;whiteSpace=wrap;html=1;container=1;dropTarget=0;collapsible=0;recursiveResize=0;outlineConnect=0;portConstraint=eastwest;newEdgeStyle={&quot;curved&quot;:0,&quot;rounded&quot;:0};" parent="WIyWlLk6GJQsqaUBKTNV-1" vertex="1">
          <mxGeometry x="1380" y="190" width="100" height="680" as="geometry" />
        </mxCell>
        <mxCell id="M4I0rMNGaV8OxPY2INGT-15" value="&lt;font style=&quot;font-size: 15px;&quot;&gt;get(K)&lt;br&gt;&lt;/font&gt;" style="html=1;verticalAlign=bottom;endArrow=block;curved=0;rounded=0;" parent="WIyWlLk6GJQsqaUBKTNV-1" edge="1">
          <mxGeometry width="80" relative="1" as="geometry">
            <mxPoint x="150" y="544.5" as="sourcePoint" />
            <mxPoint x="469.5" y="544.5" as="targetPoint" />
            <Array as="points">
              <mxPoint x="390" y="544.5" />
            </Array>
          </mxGeometry>
        </mxCell>
        <mxCell id="M4I0rMNGaV8OxPY2INGT-16" value="&lt;font style=&quot;font-size: 15px;&quot;&gt;V&lt;/font&gt;" style="html=1;verticalAlign=bottom;endArrow=open;dashed=1;endSize=8;curved=0;rounded=0;" parent="WIyWlLk6GJQsqaUBKTNV-1" edge="1">
          <mxGeometry relative="1" as="geometry">
            <mxPoint x="1429.5" y="580" as="sourcePoint" />
            <mxPoint x="149.5" y="580" as="targetPoint" />
          </mxGeometry>
        </mxCell>
        <mxCell id="M4I0rMNGaV8OxPY2INGT-18" value="&lt;font style=&quot;font-size: 15px;&quot;&gt;find(sort predicate)&lt;br&gt;&lt;/font&gt;" style="html=1;verticalAlign=bottom;endArrow=block;curved=0;rounded=0;" parent="WIyWlLk6GJQsqaUBKTNV-1" edge="1">
          <mxGeometry width="80" relative="1" as="geometry">
            <mxPoint x="150" y="750" as="sourcePoint" />
            <mxPoint x="470" y="750" as="targetPoint" />
          </mxGeometry>
        </mxCell>
        <mxCell id="M4I0rMNGaV8OxPY2INGT-20" value="&lt;font style=&quot;font-size: 15px;&quot;&gt;insert(K, V) -&amp;gt; pushFront(V)&lt;br&gt;&lt;/font&gt;" style="html=1;verticalAlign=bottom;endArrow=block;curved=0;rounded=0;" parent="WIyWlLk6GJQsqaUBKTNV-1" edge="1">
          <mxGeometry width="80" relative="1" as="geometry">
            <mxPoint x="470" y="440" as="sourcePoint" />
            <mxPoint x="1429.5" y="440" as="targetPoint" />
          </mxGeometry>
        </mxCell>
        <mxCell id="M4I0rMNGaV8OxPY2INGT-21" value="&lt;font style=&quot;font-size: 15px;&quot;&gt;get(DLLNode*)&lt;br&gt;&lt;/font&gt;" style="html=1;verticalAlign=bottom;endArrow=block;curved=0;rounded=0;" parent="WIyWlLk6GJQsqaUBKTNV-1" edge="1">
          <mxGeometry x="0.0005" width="80" relative="1" as="geometry">
            <mxPoint x="470" y="544.5" as="sourcePoint" />
            <mxPoint x="1429.5" y="544.5" as="targetPoint" />
            <mxPoint as="offset" />
          </mxGeometry>
        </mxCell>
        <mxCell id="M4I0rMNGaV8OxPY2INGT-25" value="&lt;div&gt;&lt;font style=&quot;font-size: 15px;&quot;&gt;Not in list? pushFront() -&amp;gt; popBack()&lt;br&gt;&lt;/font&gt;&lt;/div&gt;&lt;div&gt;&lt;font style=&quot;font-size: 15px;&quot;&gt;Already in list? remove(DLLNode*) -&amp;gt; pushFront()&lt;/font&gt;&lt;/div&gt;" style="text;html=1;align=center;verticalAlign=middle;resizable=0;points=[];autosize=1;strokeColor=none;fillColor=none;" parent="WIyWlLk6GJQsqaUBKTNV-1" vertex="1">
          <mxGeometry x="1060" y="390" width="350" height="50" as="geometry" />
        </mxCell>
        <mxCell id="M4I0rMNGaV8OxPY2INGT-26" value="&lt;font style=&quot;font-size: 15px;&quot;&gt;remove(DLLNode*) -&amp;gt; pushFront() -&amp;gt; popBack()&lt;br&gt;&lt;/font&gt;" style="text;html=1;align=center;verticalAlign=middle;resizable=0;points=[];autosize=1;strokeColor=none;fillColor=none;" parent="WIyWlLk6GJQsqaUBKTNV-1" vertex="1">
          <mxGeometry x="1065" y="515" width="340" height="30" as="geometry" />
        </mxCell>
        <mxCell id="M4I0rMNGaV8OxPY2INGT-29" value="&lt;font style=&quot;font-size: 15px;&quot;&gt;find(sort predicate)&lt;br&gt;&lt;/font&gt;" style="html=1;verticalAlign=bottom;endArrow=block;curved=0;rounded=0;" parent="WIyWlLk6GJQsqaUBKTNV-1" edge="1">
          <mxGeometry width="80" relative="1" as="geometry">
            <mxPoint x="470" y="750" as="sourcePoint" />
            <mxPoint x="754.5" y="750" as="targetPoint" />
          </mxGeometry>
        </mxCell>
        <mxCell id="M4I0rMNGaV8OxPY2INGT-30" value="&lt;font style=&quot;font-size: 15px;&quot;&gt;find(sort predicate 1)&lt;br&gt;&lt;/font&gt;" style="html=1;verticalAlign=bottom;endArrow=block;curved=0;rounded=0;" parent="WIyWlLk6GJQsqaUBKTNV-1" edge="1">
          <mxGeometry width="80" relative="1" as="geometry">
            <mxPoint x="750" y="750" as="sourcePoint" />
            <mxPoint x="1044.5" y="700" as="targetPoint" />
          </mxGeometry>
        </mxCell>
        <mxCell id="M4I0rMNGaV8OxPY2INGT-31" value="&lt;font style=&quot;font-size: 15px;&quot;&gt;find(sort predicate 2)&lt;br&gt;&lt;/font&gt;" style="html=1;verticalAlign=bottom;endArrow=block;curved=0;rounded=0;" parent="WIyWlLk6GJQsqaUBKTNV-1" edge="1">
          <mxGeometry width="80" relative="1" as="geometry">
            <mxPoint x="750" y="750" as="sourcePoint" />
            <mxPoint x="1045" y="750" as="targetPoint" />
          </mxGeometry>
        </mxCell>
        <mxCell id="M4I0rMNGaV8OxPY2INGT-32" value="&lt;font style=&quot;font-size: 15px;&quot;&gt;find(sort predicate 3)&lt;br&gt;&lt;/font&gt;" style="html=1;verticalAlign=bottom;endArrow=block;curved=0;rounded=0;" parent="WIyWlLk6GJQsqaUBKTNV-1" edge="1">
          <mxGeometry width="80" relative="1" as="geometry">
            <mxPoint x="750" y="750" as="sourcePoint" />
            <mxPoint x="1045" y="810" as="targetPoint" />
          </mxGeometry>
        </mxCell>
        <mxCell id="M4I0rMNGaV8OxPY2INGT-34" value="&lt;font style=&quot;font-size: 15px;&quot;&gt;removeX(DLLNode*) -&amp;gt; pushFrontX() -&amp;gt; popBackX()&lt;br&gt;&lt;/font&gt;" style="html=1;verticalAlign=bottom;endArrow=block;curved=0;rounded=0;" parent="WIyWlLk6GJQsqaUBKTNV-1" target="M4I0rMNGaV8OxPY2INGT-13" edge="1">
          <mxGeometry width="80" relative="1" as="geometry">
            <mxPoint x="1040.5" y="750" as="sourcePoint" />
            <mxPoint x="1325" y="750" as="targetPoint" />
          </mxGeometry>
        </mxCell>
        <mxCell id="M4I0rMNGaV8OxPY2INGT-36" value="&lt;font style=&quot;font-size: 15px;&quot;&gt;(Sorted) &lt;font style=&quot;font-size: 15px;&quot;&gt;Iterator&lt;/font&gt;&lt;/font&gt;" style="html=1;verticalAlign=bottom;endArrow=open;dashed=1;endSize=8;curved=0;rounded=0;" parent="WIyWlLk6GJQsqaUBKTNV-1" target="M4I0rMNGaV8OxPY2INGT-11" edge="1">
          <mxGeometry relative="1" as="geometry">
            <mxPoint x="1045" y="840" as="sourcePoint" />
            <mxPoint x="760" y="840" as="targetPoint" />
          </mxGeometry>
        </mxCell>
        <mxCell id="M4I0rMNGaV8OxPY2INGT-37" value="&lt;font style=&quot;font-size: 15px;&quot;&gt;(Sorted) Iterator&lt;/font&gt;" style="html=1;verticalAlign=bottom;endArrow=open;dashed=1;endSize=8;curved=0;rounded=0;" parent="WIyWlLk6GJQsqaUBKTNV-1" target="M4I0rMNGaV8OxPY2INGT-9" edge="1">
          <mxGeometry relative="1" as="geometry">
            <mxPoint x="750" y="840" as="sourcePoint" />
            <mxPoint x="460" y="840" as="targetPoint" />
          </mxGeometry>
        </mxCell>
        <mxCell id="55hbPj5yIPeKLmPJDFJs-0" value="&lt;font style=&quot;font-size: 15px;&quot;&gt;insert(K, V)&lt;br&gt;&lt;/font&gt;" style="html=1;verticalAlign=bottom;endArrow=block;curved=0;rounded=0;" edge="1" parent="WIyWlLk6GJQsqaUBKTNV-1">
          <mxGeometry width="80" relative="1" as="geometry">
            <mxPoint x="20" y="420" as="sourcePoint" />
            <mxPoint x="150" y="420" as="targetPoint" />
          </mxGeometry>
        </mxCell>
        <mxCell id="55hbPj5yIPeKLmPJDFJs-1" value="&lt;font style=&quot;font-size: 15px;&quot;&gt;insert(K, V)&lt;br&gt;&lt;/font&gt;" style="html=1;verticalAlign=bottom;endArrow=block;curved=0;rounded=0;" edge="1" parent="WIyWlLk6GJQsqaUBKTNV-1">
          <mxGeometry width="80" relative="1" as="geometry">
            <mxPoint x="150" y="440" as="sourcePoint" />
            <mxPoint x="469.5" y="440" as="targetPoint" />
          </mxGeometry>
        </mxCell>
        <mxCell id="55hbPj5yIPeKLmPJDFJs-2" value="&lt;font style=&quot;font-size: 15px;&quot;&gt;insert(K, V)&lt;br&gt;&lt;/font&gt;" style="html=1;verticalAlign=bottom;endArrow=block;curved=0;rounded=0;" edge="1" parent="WIyWlLk6GJQsqaUBKTNV-1">
          <mxGeometry width="80" relative="1" as="geometry">
            <mxPoint x="150" y="400" as="sourcePoint" />
            <mxPoint x="754.5" y="400" as="targetPoint" />
          </mxGeometry>
        </mxCell>
        <mxCell id="55hbPj5yIPeKLmPJDFJs-3" value="&lt;font style=&quot;font-size: 15px;&quot;&gt;insert(K, V) (each BTree inserts by its sort type)&lt;br&gt;&lt;/font&gt;" style="html=1;verticalAlign=bottom;endArrow=block;curved=0;rounded=0;" edge="1" parent="WIyWlLk6GJQsqaUBKTNV-1">
          <mxGeometry width="80" relative="1" as="geometry">
            <mxPoint x="740" y="400" as="sourcePoint" />
            <mxPoint x="1044.5" y="400" as="targetPoint" />
          </mxGeometry>
        </mxCell>
        <mxCell id="55hbPj5yIPeKLmPJDFJs-7" value="&lt;font style=&quot;font-size: 15px;&quot;&gt;get(K)&lt;br&gt;&lt;/font&gt;" style="html=1;verticalAlign=bottom;endArrow=block;curved=0;rounded=0;" edge="1" parent="WIyWlLk6GJQsqaUBKTNV-1">
          <mxGeometry width="80" relative="1" as="geometry">
            <mxPoint x="20" y="562" as="sourcePoint" />
            <mxPoint x="150" y="562" as="targetPoint" />
          </mxGeometry>
        </mxCell>
        <mxCell id="55hbPj5yIPeKLmPJDFJs-9" value="&lt;font style=&quot;font-size: 15px;&quot;&gt;find(sort predicate)&lt;br&gt;&lt;/font&gt;" style="html=1;verticalAlign=bottom;endArrow=block;curved=0;rounded=0;" edge="1" parent="WIyWlLk6GJQsqaUBKTNV-1">
          <mxGeometry width="80" relative="1" as="geometry">
            <mxPoint x="20" y="800" as="sourcePoint" />
            <mxPoint x="150" y="800" as="targetPoint" />
          </mxGeometry>
        </mxCell>
      </root>
    </mxGraphModel>
  </diagram>
</mxfile>
